<?xml version="1.0" encoding="UTF-8" standalone="no"?>
<!-- Created with Inkscape (http://www.inkscape.org/) -->

<svg
   width="60mm"
   height="70mm"
   viewBox="0 0 60 70"
   version="1.1"
   id="svg1"
   inkscape:version="1.3.2 (091e20ef0f, 2023-11-25)"
   sodipodi:docname="SandBlocks.svg"
   xml:space="preserve"
   xmlns:inkscape="http://www.inkscape.org/namespaces/inkscape"
   xmlns:sodipodi="http://sodipodi.sourceforge.net/DTD/sodipodi-0.dtd"
   xmlns="http://www.w3.org/2000/svg"
   xmlns:svg="http://www.w3.org/2000/svg"><sodipodi:namedview
     id="namedview1"
     pagecolor="#ffffff"
     bordercolor="#000000"
     borderopacity="0.25"
     inkscape:showpageshadow="2"
     inkscape:pageopacity="0.0"
     inkscape:pagecheckerboard="0"
     inkscape:deskcolor="#d1d1d1"
     inkscape:document-units="mm"
     inkscape:zoom="2.0000001"
     inkscape:cx="55.249999"
     inkscape:cy="134.75"
     inkscape:window-width="1920"
     inkscape:window-height="1056"
     inkscape:window-x="0"
     inkscape:window-y="0"
     inkscape:window-maximized="1"
     inkscape:current-layer="svg1"
     showguides="true" /><defs
     id="defs1"><rect
       x="227.72153"
       y="30.919348"
       width="797.8761"
       height="162.68979"
       id="rect338" /><rect
       x="63.683804"
       y="311.37558"
       width="337.74292"
       height="245.52074"
       id="rect213" /></defs><g
     inkscape:label="Camada 1"
     inkscape:groupmode="layer"
     id="layer1" /><g
     id="g338"
     transform="translate(-60.653505,-5.74152)"><path
       d="M 65.653505,10.74152 V 60.741569 H 115.65355 V 10.74152 Z m 1.485181,1.485181 h 47.029684 v 19.756416 3.814238 8.281665 1.760616 4.720642 3.774447 3.464905 1.456758 H 67.138686 V 57.79963 54.369348 54.334725 45.839636 42.975211 39.67102 27.225268 Z"
       style="fill:#002255;stroke-width:0.44823;stroke-linecap:round;stroke-linejoin:round"
       id="path338" /><path
       d="m 66.653505,11.74152 v 15.308016 12.702532 3.372363 2.923523 8.670359 0.03534 3.501055 1.486814 H 114.6535 V 58.254706 54.718313 50.865992 46.047954 44.251013 35.798482 31.905549 11.74152 Z"
       style="fill:#ffffff;stroke-width:1.02063;stroke-linecap:round;stroke-linejoin:round;stroke-dasharray:none"
       id="path337" /><path
       d="m 67.138686,12.226701 v 14.998567 c 0.951538,-0.214527 1.895227,-0.404592 2.801379,-0.529166 2.962477,-0.407267 4.242413,-0.173449 7.170105,0.02687 1.094739,0.212647 2.199094,0.37966 3.284037,0.637688 1.859026,0.442123 5.662548,1.645081 7.384562,2.167309 2.790538,0.846286 5.585765,1.679976 8.396904,2.454631 2.108421,0.580968 4.225817,1.128527 6.356717,1.623673 0.71029,0.165052 1.4223,0.32435 2.13579,0.476974 0.16701,0.03251 0.33332,0.06814 0.50023,0.101286 0.73406,-0.193279 1.4679,-0.387919 2.20244,-0.579293 1.10195,-0.287096 2.2019,-0.580705 3.30781,-0.852145 0.99149,-0.243351 2.29238,-0.555558 3.48971,-0.769979 V 12.226701 Z m 6.820255,4.468978 a 2.3514838,2.3514838 0 0 1 2.351795,2.351277 2.3514838,2.3514838 0 0 1 -2.351795,2.351795 2.3514838,2.3514838 0 0 1 -2.351278,-2.351795 2.3514838,2.3514838 0 0 1 2.351278,-2.351277 z"
       style="fill:#002255;stroke:#ffffff;stroke-width:0.500001;stroke-linecap:round;stroke-linejoin:round"
       id="path336" /><path
       d="m 67.138686,39.67102 c 1.341367,0.04898 2.682858,0.0949 4.021976,0.183452 2.504285,0.165608 3.561808,0.286167 6.085934,0.528133 0.52436,0.0563 1.047114,0.12554 1.570963,0.186035 3.19251,-0.696534 6.37952,-1.41758 9.562207,-2.156974 1.695327,-0.393853 3.391213,-0.785909 5.081861,-1.19941 1.710749,-0.418417 3.414794,-0.864043 5.122168,-1.296045 2.196135,-0.572071 4.389965,-1.153822 6.584615,-1.731677 -0.16691,-0.03315 -0.33322,-0.06877 -0.50023,-0.101286 C 98.960267,32.862261 93.359844,31.220543 87.778769,29.52797 86.056755,29.005742 82.253233,27.802784 80.394207,27.360661 79.309264,27.102633 78.204909,26.93562 77.11017,26.722973 c -1.463843,-0.100156 -2.51562,-0.208742 -3.571875,-0.241328 -1.056275,-0.03255 -2.116992,0.01082 -3.59823,0.214457 -0.906152,0.124574 -1.849841,0.314639 -2.801379,0.529166 z"
       style="fill:#917c6f;stroke:#ffffff;stroke-width:0.500001;stroke-linecap:round;stroke-linejoin:round"
       id="path333" /><path
       d="m 114.16837,31.983117 c -1.19733,0.214421 -2.49822,0.526628 -3.48971,0.769979 -1.10591,0.27144 -2.20586,0.565049 -3.30781,0.852145 -0.73454,0.191374 -1.46838,0.386014 -2.20244,0.579293 -2.19465,0.577855 -4.38848,1.159606 -6.584615,1.731677 -1.707374,0.432002 -3.411419,0.877628 -5.122168,1.296045 -1.690648,0.413501 -3.386534,0.805557 -5.081861,1.19941 -3.182687,0.739394 -6.369697,1.46044 -9.562207,2.156974 5.659528,0.653568 11.293468,1.518126 16.959689,2.11615 1.441053,0.152093 2.884915,0.276353 4.327382,0.414445 4.68472,0.36906 9.37341,0.688904 14.06374,0.979785 v -8.281665 z"
       style="fill:#ac9d93;stroke:#ffffff;stroke-width:0.500001;stroke-linecap:round;stroke-linejoin:round"
       id="path332" /><path
       d="M 114.16837,44.07902 C 109.47804,43.788139 104.78935,43.468295 100.10463,43.099235 98.662163,42.961143 97.218301,42.836883 95.777248,42.68479 90.111027,42.086766 84.477087,41.222208 78.817559,40.56864 78.29371,40.508145 77.770956,40.43891 77.246596,40.382605 74.72247,40.140639 73.664947,40.02008 71.160662,39.854472 69.821544,39.765917 68.480053,39.719996 67.138686,39.67102 v 3.304191 2.864425 8.495089 0.03462 c 1.060522,0.03639 2.12156,0.06508 3.182234,0.09767 1.354445,0.0075 2.708365,0.03144 4.062801,0.02274 1.74884,-0.01124 3.709684,-0.06858 5.590874,-0.155029 0.645581,-0.02967 1.318224,-0.04987 1.920296,-0.09043 2.302237,-0.155089 5.101105,-0.454073 7.390246,-0.735356 1.248428,-0.1534 2.49406,-0.332119 3.740857,-0.49816 4.041017,-0.591564 8.080026,-1.194642 12.134146,-1.69137 2.65423,-0.325213 4.90421,-0.591998 7.57059,-0.725537 0.4787,-0.02394 0.95841,-0.02389 1.43764,-0.03359 v -4.720642 z"
       style="fill:#c8beb7;stroke:#ffffff;stroke-width:0.500001;stroke-linecap:round;stroke-linejoin:round"
       id="path334" /><path
       d="m 114.16837,50.560278 c -0.47923,0.0097 -0.95894,0.0097 -1.43764,0.03359 -2.66638,0.133539 -4.91636,0.400324 -7.57059,0.725537 -4.05412,0.496728 -8.093129,1.099806 -12.134146,1.69137 -1.246797,0.166041 -2.492429,0.34476 -3.740857,0.49816 -2.289141,0.281283 -5.088009,0.580267 -7.390246,0.735356 -0.602072,0.04056 -1.274715,0.06076 -1.920296,0.09043 -1.88119,0.08645 -3.842034,0.143789 -5.590874,0.155029 -1.354436,0.0087 -2.708356,-0.01522 -4.062801,-0.02274 -1.060674,-0.03259 -2.121712,-0.06128 -3.182234,-0.09767 v 3.430282 1.456758 h 47.029684 v -1.45675 -3.464905 z"
       style="fill:#e3dedb;stroke:#ffffff;stroke-width:0.500001;stroke-linecap:round;stroke-linejoin:round"
       id="path335" /></g><text
     xml:space="preserve"
     transform="matrix(0.07401403,0,0,0.10417121,-12.099797,50.28747)"
     id="text338"
     style="font-size:118.351px;font-family:Montserrat;-inkscape-font-specification:'Montserrat, Normal';white-space:pre;shape-inside:url(#rect338);opacity:1;fill:#ffffff;fill-opacity:1;stroke:#ffffff;stroke-width:3.77953;stroke-linecap:round;stroke-linejoin:round;stroke-dasharray:none;stroke-opacity:1"><tspan
       x="227.7207"
       y="139.69556"
       id="tspan2"><tspan
         style="font-family:'URW Bookman';-inkscape-font-specification:'URW Bookman, Normal';fill:#483737;stroke:none"
         id="tspan1">SandBlocks</tspan></tspan></text></svg>
